/* XPM */
static char *a6742d3a581240ab9db521daac40300bqvMum5NsU8hImjXX[] = {
/* columns rows colors chars-per-pixel */
"32 32 4 1 ",
"  c black",
". c #070000",
"X c #DFFF00",
"o c #155FFF",
/* pixels */
"................................",
"................................",
"................................",
"................................",
"................................",
"................................",
"................................",
"................................",
"................................",
"................................",
"................................",
".............ooXXXX.............",
"...........XXXooXXXXX...........",
"..........XXXXXoXXXooo..........",
".........ooXX       XXX.........",
"........XXoXX       XXXX........",
"........XXooX  oXo  XXoo........",
".......XXoooX  oXX  XooXX.......",
".......XXoXoo       oXXXX.......",
".......ooXXXX       XXXXX.......",
".......XooXoo  XoooXXXXoo.......",
".......XXXooX  XXXooooooX.......",
"........XooXX  oXooooXXX........",
"........ooXXX  XXoXXoXXX........",
".........XXXX  ooXXXoXX.........",
"..........XXXoXXooXXoo..........",
"...........XooXooXXXXo..........",
".............XXoXXX.............",
"................................",
"................................",
"................................",
"................................"
};
