/* XPM */
static char *dcb0e7db47db498a9e1ff739ef4bd516K3nnAzPFtOAESIRX[] = {
/* columns rows colors chars-per-pixel */
"32 32 8 1 ",
"  c black",
". c #222322",
"X c #272826",
"o c #333432",
"O c #484A48",
"+ c #6A6C69",
"@ c #8F918E",
"# c gray",
/* pixels */
"                                ",
"                                ",
"                                ",
"                                ",
"                                ",
"                                ",
"                                ",
"                                ",
"                                ",
"                                ",
"             #######            ",
"           ##@@@@@@@##          ",
"          #@@+++++++@@#         ",
"         #@+++OOOOO+++@#        ",
"        #@++OOOOOOOOO++@#       ",
"       #@+OOOOXXXXXOOOO+@#      ",
"       #@+OOoX.....XOOO+@#      ",
"      #@+OOoX.......X.OO+@#     ",
"      #@+OOo.........XOO+@#     ",
"      #@+OOX.........XOO+@#     ",
"      #@+OOo.........XOO+@#     ",
"      #@+OOOo.......ooOO+@#     ",
"       #+OOOOX.....XOOO++#      ",
"       #@+OOOOoooXXOOO++@#      ",
"        #++OOOOOOOOOO+++#       ",
"         #+++OOOOOOO+++#        ",
"          #@+++++++++@#         ",
"           ##@+++++@##          ",
"             #######            ",
"                                ",
"                                ",
"                                "
};
