/* XPM */
static char *_f68d9c2aeb74666ebe5993fe4bd0587WfielvYHXSKvnCFp[] = {
/* columns rows colors chars-per-pixel */
"32 32 5 1 ",
"  c #070000",
". c #AC2209",
"X c red",
"o c #0067FF",
"O c #DE7EFF",
/* pixels */
"                                ",
"                                ",
"                                ",
"                                ",
"                                ",
"                                ",
"                                ",
"                                ",
"                                ",
"                                ",
"                                ",
"             OOOOOO             ",
"           OOOOOOOOOO           ",
"          OOOOOOOOOOOO          ",
"         XX..XX.X.XXXXX         ",
"        ..XX....X...XX.X        ",
"        X..oooo.Xoooo..X        ",
"       ..XXX.XX.X...X...X       ",
"       X.X....XX.XX.XX..X       ",
"       XX..XX.X..XX.X.X.X       ",
"       XX.XXX..XX.X..XX..       ",
"       ..XXX..oooo.X..XXX       ",
"        .....XoOOoXX....        ",
"        XX.X.XooooXX..XX        ",
"         ..X.XX...XXX.X         ",
"          ..X.X.X..X..          ",
"           XX..X.X...           ",
"             X.X.XX             ",
"                                ",
"                                ",
"                                ",
"                                "
};
