/* XPM */
static char *afc55e0a0a1d4a5de0546f45395444b3e6jAadLKfdxgI4aE[] = {
/* columns rows colors chars-per-pixel */
"32 32 6 1 ",
"  c black",
". c #0E0E0E",
"X c red",
"o c #0024FF",
"O c #3A66F8",
"+ c #009FFF",
/* pixels */
"ooooooooooooooO+Oooooooooooooooo",
"oooooooooooooo+O+ooooooooooooooo",
"ooooooooooooooO+Oooooooooooooooo",
"oooooooooooooo+O+ooooooooooooooo",
"ooooooooooooooO+Oooooooooooooooo",
"oooooooooooooo+O+ooooooooooooooo",
"ooooooooooooooO+Oooooooooooooooo",
"ooooooooXXXXXX   XXXXXXooooooooo",
"ooooooooXXXXXX   XXXXXXooooooooo",
"ooooooooXX           XXooooooooo",
"ooooooooXX           XXooooooooo",
"ooooooooXX  .+++++.  XXooooooooo",
"ooooooooXX  +.+++.+  XXooooooooo",
"O+O+O+O+    ++.+.++    +O+O+O+O+",
"+O+O+O+O    +++.+++    O+O+O+O+O",
"ooooooooXX  ++.+.++  XXooooooooo",
"ooooooooXX  +.+++.+  XXooooooooo",
"ooooooooXX  .+++++.  XXooooooooo",
"ooooooooXX           XXooooooooo",
"ooooooooXX           XXooooooooo",
"ooooooooXXXXXX   XXXXXXooooooooo",
"ooooooooXXXXXX   XXXXXXooooooooo",
"ooooooooooooooO+Oooooooooooooooo",
"oooooooooooooo+O+ooooooooooooooo",
"ooooooooooooooO+Oooooooooooooooo",
"oooooooooooooo+O+ooooooooooooooo",
"ooooooooooooooO+Oooooooooooooooo",
"oooooooooooooo+O+ooooooooooooooo",
"ooooooooooooooO+Oooooooooooooooo",
"oooooooooooooo+O+ooooooooooooooo",
"ooooooooooooooO+Oooooooooooooooo",
"oooooooooooooo+O+ooooooooooooooo"
};
